<?xml version="1.0" standalone="no"?>
<!DOCTYPE svg PUBLIC "-//W3C//DTD SVG 20010904//EN"
 "http://www.w3.org/TR/2001/REC-SVG-20010904/DTD/svg10.dtd">
<svg version="1.0" xmlns="http://www.w3.org/2000/svg"
 width="427.000000pt" height="427.000000pt" viewBox="0 0 427.000000 427.000000"
 preserveAspectRatio="xMidYMid meet">
<metadata>
Created by potrace 1.16, written by Peter Selinger 2001-2019
</metadata>
<g transform="translate(0.000000,427.000000) scale(0.100000,-0.100000)"
fill="#000000" stroke="none">
<path d="M1068 3012 c-21 -4 -46 -14 -57 -23 -17 -15 -101 -245 -101 -277 0
-6 9 -12 20 -12 23 0 27 -18 6 -26 -8 -3 -12 -13 -9 -25 5 -17 1 -20 -22 -17
-26 3 -28 0 -81 -151 -33 -94 -50 -157 -44 -161 5 -3 1 -13 -10 -23 -11 -9
-17 -23 -14 -32 4 -9 0 -21 -9 -28 -17 -14 -70 -167 -57 -167 4 0 10 7 14 15
7 19 26 19 26 0 0 -9 9 -15 25 -15 27 0 35 -24 11 -33 -9 -4 -12 -14 -9 -26 6
-23 -6 -28 -25 -9 -9 9 -15 9 -24 0 -20 -20 -41 -15 -35 8 3 11 2 20 -2 20 -6
0 -41 -96 -41 -114 0 -3 77 -5 172 -4 l171 3 19 55 c14 41 16 60 9 72 -15 24
-14 28 7 28 14 0 24 20 45 83 15 46 27 89 27 95 0 15 -36 16 -45 2 -11 -18
-26 -10 -20 11 4 13 0 27 -11 40 -16 18 -16 19 8 19 16 0 28 8 35 22 l10 23
12 -23 c6 -12 18 -22 25 -22 17 0 121 303 106 308 -5 2 -10 11 -10 20 0 8 -7
24 -17 34 -15 17 -15 18 5 18 11 0 28 9 36 21 15 22 36 18 36 -7 0 -9 10 -14
27 -14 25 0 25 -1 9 -19 -9 -10 -14 -25 -11 -34 7 -17 -10 -33 -20 -17 -3 5
-10 10 -15 10 -5 0 15 -71 45 -157 54 -158 75 -189 97 -149 11 20 38 21 38 1
0 -9 9 -15 25 -15 28 0 33 -15 9 -24 -12 -4 -14 -13 -10 -32 6 -22 5 -24 -13
-15 -24 13 -32 13 -50 2 -11 -7 -8 -24 15 -95 24 -75 31 -86 51 -86 27 0 30
-15 7 -28 -15 -8 -15 -14 3 -68 l20 -59 191 -3 c106 -1 192 0 192 2 0 3 -8 27
-18 53 -11 26 -22 56 -26 67 -9 26 -36 3 -28 -26 4 -18 2 -20 -14 -13 -24 9
-34 9 -58 0 -16 -7 -18 -5 -14 13 4 12 0 26 -8 33 -20 16 -17 29 5 29 10 0 24
7 31 15 7 8 16 15 21 15 5 0 9 -7 9 -15 0 -8 9 -15 20 -15 26 0 26 2 -12 104
-21 61 -34 84 -42 76 -17 -17 -29 -11 -22 13 4 16 -1 27 -17 39 l-22 18 23 0
c12 0 22 6 22 13 0 11 -41 134 -86 254 -17 46 -42 60 -75 42 -20 -10 -21 -9
-15 14 4 17 1 27 -9 31 -22 8 -18 26 5 26 13 0 24 10 30 25 7 19 0 49 -33 142
-37 102 -46 120 -72 132 -32 16 -319 25 -387 13z"/>
<path d="M2220 2813 c0 -4 12 -44 27 -90 l27 -83 193 0 c148 0 193 3 193 13 0
6 -11 46 -24 87 l-24 75 -196 3 c-108 1 -196 -1 -196 -5z"/>
<path d="M3435 2808 c-11 -30 -55 -162 -55 -165 0 -2 82 -2 182 -1 l181 3 23
67 c12 36 25 76 29 87 6 21 4 21 -175 21 -135 0 -182 -3 -185 -12z"/>
<path d="M2340 2453 c0 -4 12 -44 27 -90 l27 -83 194 0 c180 0 193 1 188 18
-3 9 -16 49 -28 87 l-23 70 -193 3 c-105 1 -192 -1 -192 -5z"/>
<path d="M3300 2383 c-13 -43 -25 -84 -28 -91 -3 -10 33 -12 173 -10 l178 3
23 67 c12 36 25 76 29 87 6 21 4 21 -173 21 l-179 0 -23 -77z"/>
<path d="M2463 2078 c2 -7 15 -46 28 -85 l23 -73 188 0 c103 0 188 3 188 8 0
4 -11 41 -23 82 l-24 75 -192 3 c-153 2 -192 0 -188 -10z"/>
<path d="M3205 2078 c-12 -32 -45 -144 -45 -151 0 -4 77 -6 172 -5 l171 3 24
69 c12 39 23 76 23 83 0 18 -338 19 -345 1z"/>
<path d="M535 1653 c-15 -43 -29 -84 -32 -90 -4 -10 36 -13 176 -13 152 0 183
2 187 15 5 13 55 15 359 15 304 0 354 -2 359 -15 4 -13 36 -15 201 -15 150 0
195 3 194 13 0 6 -12 46 -27 87 l-27 75 -682 3 -681 2 -27 -77z"/>
<path d="M2585 1709 c4 -11 17 -51 29 -87 l23 -67 188 -3 c148 -2 186 0 183
10 -3 7 -15 48 -28 91 l-23 77 -189 0 c-187 0 -189 0 -183 -21z"/>
<path d="M3097 1723 c-3 -5 -16 -45 -30 -90 l-25 -83 167 0 167 0 27 83 c15
46 27 86 27 90 0 10 -328 9 -333 0z"/>
<path d="M435 1358 c-25 -69 -45 -134 -45 -150 0 -17 12 -18 180 -18 l179 0
26 81 c14 44 25 84 25 90 0 15 -360 12 -365 -3z"/>
<path d="M1655 1349 c4 -11 17 -51 29 -87 l23 -67 196 -3 c165 -2 197 0 197
12 0 8 -11 47 -25 88 -14 40 -25 74 -25 76 0 1 -90 2 -201 2 -199 0 -200 0
-194 -21z"/>
<path d="M2732 1280 l30 -90 246 2 247 3 27 75 c15 41 27 81 27 88 1 9 -66 12
-303 12 l-305 0 31 -90z"/>
</g>
</svg>
